<svg xmlns="http://www.w3.org/2000/svg" viewBox="0 0 241.49 95.19"><defs><style>.cls-1,.cls-9{fill:#201c50;}.cls-2{font-size:29px;}.cls-10,.cls-2,.cls-6{fill:#c61f40;}.cls-2,.cls-6{font-family:BebasNeue-Regular, Bebas Neue;}.cls-3{letter-spacing:0em;}.cls-4{letter-spacing:0em;}.cls-5{letter-spacing:0em;}.cls-6{font-size:22px;}.cls-7{letter-spacing:0em;}.cls-8{letter-spacing:-0.02em;}.cls-9{font-size:12px;font-family:SegoeScript, Segoe Script;}</style></defs><g id="Layer_2" data-name="Layer 2"><g id="Rotation"><path class="cls-1" d="M54.65,19.21H70.82L68.4,32.29s-13-11.16-28.92-10.5l2.25-10.16Z"/><path class="cls-1" d="M56.15,16.63,27.52,2.13A2.11,2.11,0,0,1,29,0H61.9l27,15.63-9.25,1.75-18-9.88L75,17.38Z"/><polygon class="cls-1" points="75.78 19.25 78.78 33.63 80.53 30.63 83.9 34.63 80.78 19.25 75.78 19.25"/><text class="cls-2" transform="translate(86.37 56.84)">C<tspan class="cls-3" x="11.11" y="0">A</tspan><tspan x="22.65" y="0">SPER </tspan><tspan class="cls-4" x="71.48" y="0">A</tspan><tspan class="cls-5" x="83.05" y="0">CADEMY</tspan></text><text class="cls-6" transform="translate(112.37 76.56)">OF <tspan class="cls-7" x="19.89" y="0">E</tspan><tspan class="cls-8" x="27.92" y="0">X</tspan><tspan x="36.5" y="0">CELLENCE</tspan></text><text class="cls-9" transform="translate(117.87 89.25)">dare to dream</text><path class="cls-1" d="M33.49,80.63c.88-.45,1.77-.92,2.67-1.43a24.05,24.05,0,0,1-8.56-6.49,25.79,25.79,0,0,1,5.63-3,27.46,27.46,0,0,0,4.41,8.61c.71-.42,1.42-.85,2.14-1.3A24.66,24.66,0,0,1,35.6,69a34.48,34.48,0,0,1,8.54-1.38V74.2c.85-.58,1.71-1.18,2.57-1.8V67.56a32.79,32.79,0,0,1,5.53.63c.81-.65,1.62-1.3,2.43-2a33.08,33.08,0,0,0-8-1.12v-.51a97.91,97.91,0,0,1-18.57,4.85,23,23,0,0,0-2,1.31c-.22-.31-.42-.65-.63-1-.92.1-1.83.18-2.75.23A27.25,27.25,0,0,0,33.49,80.63Z"/><path class="cls-1" d="M45.43,28C32.8,28,22.22,37.43,19.64,49.93c.74.33,1.52.65,2.32,1a26,26,0,0,1,4.31-10.21,18,18,0,0,0,6.19,3.24A41.17,41.17,0,0,0,31,53.45l2.45.48a39.31,39.31,0,0,1,1.41-9.35,45,45,0,0,0,9.31,1.16v8.87H37.67a152.18,152.18,0,0,0,22.58,1.3s-20.19,3.15-36.31-1.3H21.53c0-.24,0-.48.06-.72-.82-.27-1.63-.57-2.42-.89-.09.93-.14,1.88-.14,2.84a28.74,28.74,0,0,0,2.31,11.33c.87,0,1.77,0,2.68,0a26.25,26.25,0,0,1-2.49-10.05H31a55.83,55.83,0,0,0,1.33,9.27L34.76,66a53.74,53.74,0,0,1-1.33-8.89H44.14v7c.85-.2,1.71-.42,2.57-.64V57.07H56.85c-.05.83-.15,2-.33,3.46l.07,0-.08,0c-.18,1.43-.46,3.08-.85,4.84,1-.86,2-1.74,3.05-2.63a53.47,53.47,0,0,0,.62-5.69h10a26,26,0,0,1-5,14.24,20.45,20.45,0,0,0-6.57-4.07c.37-1.44.65-2.84.87-4.14-1.06,1.19-2.83,3.1-5.15,5.37.42.11.85.21,1.24.33-1.47,4.62-3.93,9.22-8,11.49V74.65c-.83.69-1.69,1.38-2.57,2.07v3.86a12.14,12.14,0,0,1-2.71-1.82c-.68.49-1.38,1-2.09,1.46l.18.18-.3-.1c-.88.59-1.77,1.17-2.68,1.72a25.08,25.08,0,0,0,8.89,1.62c14.55,0,26.39-12.47,26.39-27.8S60,28,45.43,28ZM33.22,41.56a15.46,15.46,0,0,1-5.42-2.83A23.62,23.62,0,0,1,40.26,31.1,24.72,24.72,0,0,0,33.22,41.56Zm10.92,1.71a43.47,43.47,0,0,1-8.54-1c3-8,8.08-10.57,8.38-10.72l-.44-.92.6-.05Zm6.4,37.32c3.2-2.82,5.25-6.9,6.55-10.94a17.74,17.74,0,0,1,5.7,3.59A23.56,23.56,0,0,1,50.54,80.59ZM46.71,30.54h.06l-.06.14Zm0,1.2c1.28.77,5.41,3.72,8,10.67a37.27,37.27,0,0,1-8,.88Zm0,22.87V45.76a38.78,38.78,0,0,0,8.78-1,39.26,39.26,0,0,1,1.4,9.86Zm3.12-23.67A23.48,23.48,0,0,1,62.5,38.12c-.43.64-1.83,2.31-5.38,3.58A24.51,24.51,0,0,0,49.83,30.94Zm9.53,23.67A42.86,42.86,0,0,0,57.87,44a13.81,13.81,0,0,0,6.25-4,26.15,26.15,0,0,1,5.2,14.56Z"/><path class="cls-10" d="M15.44,46.78a31.78,31.78,0,0,1,44.26-20A33.7,33.7,0,0,0,11.11,42.48,14.53,14.53,0,0,0,15.44,46.78Z"/><path class="cls-10" d="M9.82,46.15a33.57,33.57,0,0,0,0,18.95,34.12,34.12,0,0,0,6.28,1.22,31.74,31.74,0,0,1-1.91-10.85A32.26,32.26,0,0,1,14.71,50,24.85,24.85,0,0,1,9.82,46.15Z"/><path class="cls-10" d="M46,87.25a31.7,31.7,0,0,1-13.07-2.82c-1.44.71-2.91,1.36-4.39,1.94A33.65,33.65,0,0,0,61,83.47,31.54,31.54,0,0,1,46,87.25Z"/><path class="cls-10" d="M17.41,69.36a39.54,39.54,0,0,1-6.33-.8,33.79,33.79,0,0,0,14,16q2.36-.7,4.87-1.7A32,32,0,0,1,17.41,69.36Z"/><path class="cls-10" d="M12.93,40c-1.86-6.13,2.65-6.91,4.27-7h-.08l3.5-3.37A9.63,9.63,0,0,0,11.18,31C6.47,34.7,9.5,41.68,9.5,41.68,20.35,61,62.27,55.53,62.27,55.53,38.43,55.2,16,50.12,12.93,40Z"/><path class="cls-10" d="M5.38,58.15c-3.4-5.44.76-7.36,2.3-7.87L9,49.81l.86-3.65a9.16,9.16,0,0,0-8.49,3.75c-3.59,4.77,1.15,10.72,1.15,10.72C18,76.41,57,60.27,57,60.27,34,66.15,11,67.09,5.38,58.15Z"/><path class="cls-10" d="M11.93,81.33c-5.32-3.58-2.31-7-1.11-8.12l1.85-1.37L11.1,68.57a9.16,9.16,0,0,0-6.21,6.89c-1.34,5.81,5.42,9.31,5.42,9.31C30.89,92.86,60,62.19,60,62.19,41.28,77,20.67,87.22,11.93,81.33Z"/></g></g></svg>