<svg xmlns="http://www.w3.org/2000/svg" viewBox="0 0 241.23 90.15"><defs><style>.cls-1{fill:#201c50;}.cls-2{fill:#c61f40;}</style></defs><g id="Layer_2" data-name="Layer 2"><g id="Rotation"><path class="cls-1" d="M54.65,19.21H70.82L68.4,32.29s-13-11.16-28.92-10.5l2.25-10.16Z"/><path class="cls-1" d="M56.15,16.63,27.52,2.13A2.11,2.11,0,0,1,29,0H61.9l27,15.63-9.25,1.75-18-9.88L75,17.38Z"/><polygon class="cls-1" points="75.78 19.25 78.78 33.63 80.53 30.63 83.9 34.63 80.78 19.25 75.78 19.25"/><path class="cls-2" d="M87.36,52.14V41.23c0-3.13,1.62-5,4.7-5s4.7,1.85,4.7,5v2.15h-3V41c0-1.33-.64-1.88-1.59-1.88s-1.6.55-1.6,1.88V52.37c0,1.34.64,1.86,1.6,1.86s1.59-.52,1.59-1.86v-3.1h3v2.87c0,3.13-1.63,5-4.7,5S87.36,55.27,87.36,52.14Z"/><path class="cls-2" d="M101.14,36.54h4.32l3.3,20.3h-3.19l-.58-4v.06h-3.62l-.58,4h-3Zm3.48,13.57-1.42-10h-.06l-1.4,10Z"/><path class="cls-2" d="M109.66,52V50.86h3v1.4c0,1.45.64,2,1.65,2s1.65-.52,1.65-2c0-1.68-.63-2.76-2.72-4.58-2.67-2.35-3.54-4-3.54-6.33,0-3.19,1.65-5,4.76-5s4.64,1.85,4.64,5.1v.84h-3v-1c0-1.45-.58-2-1.6-2s-1.59.55-1.59,1.94.67,2.55,2.75,4.38c2.67,2.35,3.51,4,3.51,6.5,0,3.3-1.68,5.16-4.81,5.16S109.66,55.27,109.66,52Z"/><path class="cls-2" d="M121,36.54h4.7c3.19,0,4.76,1.76,4.76,5v2c0,3.25-1.57,5-4.76,5h-1.51v8.27H121Zm4.7,9.13c1,0,1.57-.46,1.57-1.91V41.35c0-1.45-.56-1.91-1.57-1.91h-1.51v6.23Z"/><path class="cls-2" d="M132.19,36.54h8.71v2.9h-5.52V44.8h4.38v2.9h-4.38v6.24h5.52v2.9h-8.71Z"/><path class="cls-2" d="M142.72,36.54h4.73c3.31,0,4.73,1.53,4.73,4.67v1.24c0,2.09-.67,3.43-2.09,4v0c1.59.5,2.12,2,2.12,4.3v3.56a6,6,0,0,0,.34,2.47H149.3a6.3,6.3,0,0,1-.29-2.49V50.63c0-1.88-.55-2.49-2-2.49h-1.1v8.7h-3.19Zm4.35,8.7c1.19,0,1.92-.53,1.92-2.15V41.52c0-1.45-.5-2.08-1.63-2.08h-1.45v5.8Z"/><path class="cls-2" d="M161.51,36.54h4.32l3.31,20.3H166l-.58-4v.06h-3.63l-.58,4h-3ZM165,50.11l-1.42-10h-.06l-1.39,10Z"/><path class="cls-2" d="M170.41,52.14V41.23c0-3.13,1.63-5,4.7-5s4.7,1.85,4.7,5v2.15h-3V41c0-1.33-.64-1.88-1.6-1.88s-1.6.55-1.6,1.88V52.37c0,1.34.64,1.86,1.6,1.86s1.6-.52,1.6-1.86v-3.1h3v2.87c0,3.13-1.62,5-4.7,5S170.41,55.27,170.41,52.14Z"/><path class="cls-2" d="M184.19,36.54h4.32l3.31,20.3h-3.19l-.58-4v.06h-3.63l-.58,4h-3Zm3.48,13.57-1.42-10h-.06l-1.39,10Z"/><path class="cls-2" d="M193.35,36.54h4.88c3.19,0,4.75,1.76,4.75,5V51.82c0,3.25-1.56,5-4.75,5h-4.88Zm4.82,17.4c1,0,1.62-.52,1.62-2V41.41c0-1.45-.61-2-1.62-2h-1.63v14.5Z"/><path class="cls-2" d="M205.13,36.54h8.7v2.9h-5.51V44.8h4.38v2.9h-4.38v6.24h5.51v2.9h-8.7Z"/><path class="cls-2" d="M215.65,36.54h4.56l2,14.53h.06l2-14.53h4.55v20.3h-3V41.47h-.05l-2.32,15.37h-2.67L218.5,41.47h-.06V56.84h-2.79Z"/><path class="cls-2" d="M234.19,48.2l-3.86-11.66h3.39L235.9,44h0l2.18-7.45h3.1L237.38,48.2v8.64h-3.19Z"/><path class="cls-2" d="M113.1,72.91v-8.1c0-2.46,1.3-3.87,3.67-3.87s3.68,1.41,3.68,3.87v8.1c0,2.46-1.3,3.87-3.68,3.87S113.1,75.37,113.1,72.91Zm4.93.15v-8.4c0-1.1-.49-1.52-1.26-1.52s-1.25.42-1.25,1.52v8.4c0,1.1.48,1.52,1.25,1.52S118,74.16,118,73.06Z"/><path class="cls-2" d="M122.08,61.16h6.4v2.2h-4v4.29h3.12v2.2H124.5v6.71h-2.42Z"/><path class="cls-2" d="M133.16,61.16h6.6v2.2h-4.18v4.07h3.33v2.2h-3.33v4.73h4.18v2.2h-6.6Z"/><path class="cls-2" d="M143.33,68.68l-2.67-7.52h2.56l1.63,5h0l1.67-5h2.29l-2.66,7.52L149,76.56h-2.55l-1.76-5.37h0l-1.81,5.37h-2.29Z"/><path class="cls-2" d="M149.62,73V64.72c0-2.37,1.23-3.78,3.56-3.78s3.57,1.41,3.57,3.78v1.63h-2.29V64.57c0-1-.48-1.43-1.21-1.43s-1.21.42-1.21,1.43v8.6c0,1,.48,1.41,1.21,1.41s1.21-.4,1.21-1.41V70.82h2.29V73c0,2.37-1.23,3.78-3.57,3.78S149.62,75.37,149.62,73Z"/><path class="cls-2" d="M158.2,61.16h6.6v2.2h-4.18v4.07h3.32v2.2h-3.32v4.73h4.18v2.2h-6.6Z"/><path class="cls-2" d="M166.19,61.16h2.42v13.2h4v2.2h-6.4Z"/><path class="cls-2" d="M173.75,61.16h2.42v13.2h4v2.2h-6.41Z"/><path class="cls-2" d="M181.32,61.16h6.6v2.2h-4.18v4.07h3.32v2.2h-3.32v4.73h4.18v2.2h-6.6Z"/><path class="cls-2" d="M189.31,61.16h3l2.36,9.22h0V61.16h2.16v15.4h-2.49l-2.9-11.24h0V76.56h-2.15Z"/><path class="cls-2" d="M198.55,73V64.72c0-2.37,1.23-3.78,3.56-3.78s3.56,1.41,3.56,3.78v1.63h-2.28V64.57c0-1-.49-1.43-1.21-1.43s-1.21.42-1.21,1.43v8.6c0,1,.48,1.41,1.21,1.41s1.21-.4,1.21-1.41V70.82h2.28V73c0,2.37-1.23,3.78-3.56,3.78S198.55,75.37,198.55,73Z"/><path class="cls-2" d="M207.13,61.16h6.6v2.2h-4.18v4.07h3.32v2.2h-3.32v4.73h4.18v2.2h-6.6Z"/><path class="cls-1" d="M128.12,85.2a.59.59,0,0,1-.07.29,4.38,4.38,0,0,1-.59.79c-.15.18-.31.35-.47.52l-.54.52-.54.47c-.18.14-.35.27-.52.38a1.55,1.55,0,0,1-.8.34.67.67,0,0,1-.29-.08,1.2,1.2,0,0,1-.59-.62,4,4,0,0,1-.3-.94q-.09-.5-.15-1.11a9,9,0,0,1-1.89,2.43,3.62,3.62,0,0,1-2.43,1.07.58.58,0,0,1-.53-.37,1.7,1.7,0,0,1-.18-.76,2.51,2.51,0,0,1,.09-.78,11.19,11.19,0,0,1,.56-1.41,9.63,9.63,0,0,1,.78-1.29,9.83,9.83,0,0,1,.68-.82,2.71,2.71,0,0,1,.73-.58,2.48,2.48,0,0,1,1.21-.23.56.56,0,0,1,.47.3A2.16,2.16,0,0,1,123,84a3,3,0,0,1,.1.67c.06-.19.11-.39.16-.58a6.18,6.18,0,0,0,.12-.62c0-.21.07-.43.1-.66s.06-.48.08-.75c0-.07,0-.16,0-.27s0-.24,0-.39c0-.3,0-.56.07-.77a1,1,0,0,1,.1-.4.51.51,0,0,1,.49-.24.83.83,0,0,1,.34.07c.12,0,.18.12.18.2a1.11,1.11,0,0,1,0,.23l-.07.41c0,.17-.08.38-.13.62s-.11.55-.17.89c0,0,0,.12,0,.24s0,.24-.06.37,0,.25-.07.36a1.62,1.62,0,0,0,0,.21c0,.32-.09.61-.13.89a7.87,7.87,0,0,0,0,.84c0,.23,0,.5,0,.81s0,.61.09.91.12.43.21.43a2.28,2.28,0,0,0,1.16-.43,11.19,11.19,0,0,0,1.3-1c.42-.39.79-.75,1.11-1.1l.07,0s.07,0,.08.09A.65.65,0,0,1,128.12,85.2Zm-5.46.37a.34.34,0,0,1-.23-.15.5.5,0,0,1-.08-.26,1.85,1.85,0,0,1,0-.35,2.88,2.88,0,0,0,0-.35.79.79,0,0,0,0-.24,1.28,1.28,0,0,0-.15-.25,1.14,1.14,0,0,0-.19-.19.42.42,0,0,0-.22-.08c-.21,0-.49.22-.84.65l-.5.64c-.15.2-.29.41-.41.6s-.25.42-.35.6-.18.34-.24.48a3,3,0,0,0-.35,1.17c0,.36.12.54.37.54a1.76,1.76,0,0,0,.9-.38,7.06,7.06,0,0,0,.92-.72l.55-.6.36-.38a2.75,2.75,0,0,0,.23-.33A3,3,0,0,0,122.66,85.57Z"/><path class="cls-1" d="M135.5,84.57a.9.9,0,0,1-.12.42,2.91,2.91,0,0,1-.25.42,10,10,0,0,1-.77.91q-.41.41-.81.78a3.92,3.92,0,0,1-.85.6,1.68,1.68,0,0,1-.77.22.62.62,0,0,1-.29-.07,1.27,1.27,0,0,1-.27-.18,1.44,1.44,0,0,1-.22-.27,1,1,0,0,1-.15-.32,1,1,0,0,1-.05-.2c0-.08,0-.15,0-.21a1.56,1.56,0,0,0-.05-.16c0-.05,0-.07-.07-.07a.24.24,0,0,0-.1.07l-.18.2-.22.27a3.25,3.25,0,0,1-.23.29l-.2.26a.92.92,0,0,1-.15.17,3.45,3.45,0,0,1-.43.42,4.18,4.18,0,0,1-.49.39,3.73,3.73,0,0,1-.46.29.82.82,0,0,1-.31.11,1.25,1.25,0,0,1-.43-.07,1.07,1.07,0,0,1-.37-.22,1,1,0,0,1-.25-.34,1,1,0,0,1-.1-.47,3.54,3.54,0,0,1,.17-1,8.13,8.13,0,0,1,.46-1.13,9,9,0,0,1,.66-1.11,6.42,6.42,0,0,1,.76-.91,3,3,0,0,1,1-.64,2.72,2.72,0,0,1,1-.21.34.34,0,0,1,.18,0,.58.58,0,0,1,.12.1.78.78,0,0,1,.1.15l.08.16a.44.44,0,0,0,.1.12l.16.13.14.13a.17.17,0,0,1,.06.12.91.91,0,0,1-.05.27l-.11.35c0,.13-.07.28-.11.45a3.1,3.1,0,0,0-.05.57,4.64,4.64,0,0,0,0,.48,3.81,3.81,0,0,0,.12.51,1.42,1.42,0,0,0,.2.41.35.35,0,0,0,.29.16.89.89,0,0,0,.4-.11c.13-.08.28-.19.45-.32a10.34,10.34,0,0,0,1.09-1c.35-.37.7-.73,1.06-1.09a.26.26,0,0,1,.17-.09C135.45,84.36,135.5,84.43,135.5,84.57Zm-4.58-.67s0,0,0-.07l-.05-.11-.09-.1a.15.15,0,0,0-.11,0h0a1.27,1.27,0,0,0-.46.14,2.29,2.29,0,0,0-.52.37,4.68,4.68,0,0,0-.58.64,8.4,8.4,0,0,0-.64,1l-.22.37a3.77,3.77,0,0,0-.22.45,2.82,2.82,0,0,0-.19.51,2.79,2.79,0,0,0-.07.58.31.31,0,0,0,.13.28.49.49,0,0,0,.28.09.75.75,0,0,0,.38-.16,3.51,3.51,0,0,0,.5-.43c.18-.17.37-.38.56-.6s.36-.47.53-.71a6.71,6.71,0,0,0,.42-.72,2.5,2.5,0,0,0,.24-.63c0-.06,0-.13,0-.21s0-.16.05-.24l0-.23A1.15,1.15,0,0,0,130.92,83.9Z"/><path class="cls-1" d="M140,84.7a.19.19,0,0,1-.08.15,1,1,0,0,1-.21.12,1.66,1.66,0,0,1-.29.09l-.32.1a4.3,4.3,0,0,0-.78.34,3.15,3.15,0,0,0-.83.66,4.33,4.33,0,0,0-.59.72,5.52,5.52,0,0,0-.42.8,7.73,7.73,0,0,0-.29.89,9.42,9.42,0,0,0-.22,1l-.11.12a.28.28,0,0,1-.1.09l-.12.06-.17,0a.28.28,0,0,1-.24-.14.87.87,0,0,1-.12-.31,1.49,1.49,0,0,1-.05-.36c0-.12,0-.21,0-.28v-.29c0-.11,0-.24,0-.38s0-.27,0-.42,0-.29,0-.43,0-.26,0-.37,0-.21,0-.29,0-.33,0-.44a2.36,2.36,0,0,0,0-.3c0-.08,0-.16,0-.22l0-.21c0-.08,0-.17,0-.27s0-.24,0-.4a.5.5,0,0,1,.06-.24.69.69,0,0,1,.13-.2.53.53,0,0,1,.2-.13.41.41,0,0,1,.21,0,.46.46,0,0,1,.23,0,.59.59,0,0,1,.18.13.76.76,0,0,1,.12.19.6.6,0,0,1,0,.22c0,.15,0,.33,0,.53l-.06.63-.06.62a4.23,4.23,0,0,0,0,.49,9.19,9.19,0,0,1,.58-1,5.37,5.37,0,0,1,.74-.9,3.93,3.93,0,0,1,.88-.65,2.08,2.08,0,0,1,1-.26l.24,0a.67.67,0,0,1,.25.08.62.62,0,0,1,.2.15A.33.33,0,0,1,140,84.7Z"/><path class="cls-1" d="M146,86.33a.86.86,0,0,1-.15.45,3.47,3.47,0,0,1-.43.54,7.24,7.24,0,0,1-.71.63,5.61,5.61,0,0,1-.8.5,4.53,4.53,0,0,1-.83.34,2.94,2.94,0,0,1-.81.12,1.79,1.79,0,0,1-1.43-.59,2.65,2.65,0,0,1-.5-1.74,4.81,4.81,0,0,1,.06-.74,6.17,6.17,0,0,1,.19-.74,4.64,4.64,0,0,1,.32-.72,4,4,0,0,1,.44-.64c.11-.12.22-.25.35-.37a2.43,2.43,0,0,1,.94-.58,2,2,0,0,1,.61-.1.82.82,0,0,1,.42.1A.94.94,0,0,1,144,83a1,1,0,0,1,.19.31.91.91,0,0,1,.07.35,1.49,1.49,0,0,1-.19.72,3.22,3.22,0,0,1-.55.74,5.68,5.68,0,0,1-.84.74,13.1,13.1,0,0,1-1.1.75l-.16.1a.17.17,0,0,0-.08.14,1.26,1.26,0,0,0,0,.37.88.88,0,0,0,.17.35.89.89,0,0,0,.33.27,1.14,1.14,0,0,0,.53.1,2.71,2.71,0,0,0,.83-.13,4.06,4.06,0,0,0,.83-.37,5.1,5.1,0,0,0,.79-.55,6.81,6.81,0,0,0,.72-.7q.19-.21.3-.21a.09.09,0,0,1,.09.08A.77.77,0,0,1,146,86.33Zm-2.71-2.5a.28.28,0,0,0,0-.12l-.08-.08a.3.3,0,0,0-.11-.06l-.1,0a.93.93,0,0,0-.52.18,2.3,2.3,0,0,0-.51.52,4.06,4.06,0,0,0-.41.78,3.73,3.73,0,0,0-.24,1,1.44,1.44,0,0,0,.22-.15l.29-.22.31-.24.28-.23a4.65,4.65,0,0,0,.44-.41,2.45,2.45,0,0,0,.28-.32.81.81,0,0,0,.14-.3A.94.94,0,0,0,143.32,83.83Z"/><path class="cls-1" d="M157.49,84.08a.42.42,0,0,1-.12.33,1.39,1.39,0,0,1-.27.21,3.58,3.58,0,0,1-.43.15l-.48.13a4.54,4.54,0,0,1-.51.09l-.48.07-.52,0-.53.05-.48.06-.35.09c-.08.36-.17.7-.26,1a8.36,8.36,0,0,0-.23,1c0,.08,0,.19-.07.34s0,.3-.07.46,0,.32-.06.46a2.39,2.39,0,0,0,0,.31.69.69,0,0,0,.08.36.63.63,0,0,0,.17.19l.16.14a.24.24,0,0,1,.08.19.23.23,0,0,1-.08.16.64.64,0,0,1-.19.13l-.24.1-.22,0a.47.47,0,0,1-.3-.1.76.76,0,0,1-.23-.24,1.52,1.52,0,0,1-.15-.34,1.75,1.75,0,0,1-.05-.4,4.13,4.13,0,0,1,.05-.58c0-.2.07-.41.11-.63s.1-.43.15-.66.11-.45.15-.67l.06-.29a1.57,1.57,0,0,0,.06-.28l0-.22a.58.58,0,0,0,0-.1.19.19,0,0,0-.06-.15.3.3,0,0,0-.16,0h-.22l-.29,0-.3,0H151a1.94,1.94,0,0,1-.36,0,.53.53,0,0,1-.24-.1.43.43,0,0,1-.13-.19,1,1,0,0,1-.05-.33.16.16,0,0,1,.08-.13.69.69,0,0,1,.19-.07l.23,0H151l.25,0,.37,0,.36,0,.25,0h.08l.1,0a.38.38,0,0,0,.09-.09.84.84,0,0,0,.07-.18l.1-.42.12-.5.12-.49.1-.41c0-.11.06-.22.09-.35s.05-.25.07-.37,0-.25.07-.37a1.73,1.73,0,0,1,.11-.32.42.42,0,0,1,.41-.3c.29,0,.44.16.44.48a2.37,2.37,0,0,1-.13.68c-.19.6-.33,1.08-.42,1.47a4,4,0,0,0-.13.78.19.19,0,0,0,.21.21h.5l.47,0,.5,0,.59-.06.45-.07.39-.08.33-.07a1.39,1.39,0,0,1,.23,0l.13,0h.1s.06,0,.07,0A.17.17,0,0,1,157.49,84.08Z"/><path class="cls-1" d="M160.76,85.33c0,.13,0,.25,0,.36s0,.22-.05.33-.06.21-.1.32a2.16,2.16,0,0,1-.14.33,1.9,1.9,0,0,1-.29.43,6.37,6.37,0,0,1-.52.52c-.2.18-.43.36-.67.54a8.21,8.21,0,0,1-.73.47,4.68,4.68,0,0,1-.72.34,1.82,1.82,0,0,1-.64.13,1.84,1.84,0,0,1-.69-.13,1.57,1.57,0,0,1-.48-.35,1.28,1.28,0,0,1-.29-.49,1.52,1.52,0,0,1-.1-.55,2.37,2.37,0,0,1,.05-.43c0-.16.07-.33.12-.5s.11-.35.18-.53.15-.35.23-.51a2.84,2.84,0,0,1,.24-.46,2.81,2.81,0,0,1,.24-.36,3.28,3.28,0,0,1,.49-.5,3.62,3.62,0,0,1,.64-.44,3.5,3.5,0,0,1,.74-.31,3.12,3.12,0,0,1,.82-.11,1.41,1.41,0,0,1,.62.15,2.18,2.18,0,0,1,.54.42,2.24,2.24,0,0,1,.38.61A1.79,1.79,0,0,1,160.76,85.33Zm-.92.17a1.22,1.22,0,0,0-.33-.91,1.28,1.28,0,0,0-.95-.33.9.9,0,0,0-.43.12,2.07,2.07,0,0,0-.41.27,3.11,3.11,0,0,0-.37.35l-.28.33a4.11,4.11,0,0,0-.24.41c-.09.18-.18.36-.26.56s-.14.4-.2.59a2.2,2.2,0,0,0-.08.52.66.66,0,0,0,.06.27.58.58,0,0,0,.15.25.84.84,0,0,0,.23.18.6.6,0,0,0,.3.07,1.44,1.44,0,0,0,.45-.11,3.2,3.2,0,0,0,.59-.29,4.81,4.81,0,0,0,.63-.44,4.25,4.25,0,0,0,.57-.55,3.14,3.14,0,0,0,.42-.63A1.58,1.58,0,0,0,159.84,85.5Z"/><path class="cls-1" d="M176.53,84.39a.47.47,0,0,1,0,.16,1.07,1.07,0,0,1-.07.15,5.63,5.63,0,0,1-.33.54c-.14.19-.28.39-.44.59l-.49.57c-.17.18-.33.34-.49.48l-.43.41a6.11,6.11,0,0,1-.51.41,3.92,3.92,0,0,1-.54.33,1.13,1.13,0,0,1-.51.13.84.84,0,0,1-.3-.08,1.26,1.26,0,0,1-.58-.62,2.75,2.75,0,0,1-.17-.45,2.16,2.16,0,0,1-.1-.44c0-.15,0-.32-.06-.49s0-.35-.05-.56a8.89,8.89,0,0,1-1.9,2.42A3.55,3.55,0,0,1,167.09,89a.56.56,0,0,1-.52-.37,1.58,1.58,0,0,1-.19-.75,2.54,2.54,0,0,1,.09-.79,11.21,11.21,0,0,1,.57-1.41,9.05,9.05,0,0,1,.77-1.28c.1-.14.21-.28.32-.41s.23-.28.36-.42a2.93,2.93,0,0,1,.73-.58,2.63,2.63,0,0,1,1.21-.23.54.54,0,0,1,.47.31,2.3,2.3,0,0,1,.29.7,2.85,2.85,0,0,1,.1.67,5.5,5.5,0,0,0,.16-.58c.05-.2.09-.4.13-.61s.06-.44.09-.67.06-.48.08-.75a1.84,1.84,0,0,0,0-.26q0-.17,0-.39c0-.31,0-.56.07-.77A1.24,1.24,0,0,1,172,80a.51.51,0,0,1,.49-.24.93.93,0,0,1,.35.08c.12,0,.18.11.18.2a1.34,1.34,0,0,1,0,.22c0,.11,0,.25-.07.41s-.08.38-.13.63-.11.55-.17.89-.08.45-.11.64-.06.37-.09.53c0,.32-.09.62-.12.89a7.92,7.92,0,0,0-.05.85s0,.1,0,.22,0,.25,0,.41,0,.32,0,.5a3.34,3.34,0,0,0,.08.49,1.4,1.4,0,0,0,.11.36q.06.15.15.15l.22,0a1,1,0,0,0,.2-.08l.23-.13.29-.19a2.77,2.77,0,0,0,.37-.28l.39-.34c.14-.13.27-.25.39-.38l.33-.34c.23-.25.46-.5.67-.75s.4-.47.57-.64l.09,0,.08,0s0,0,0,0,0,.06,0,.09v.22Zm-5.72.94a.39.39,0,0,1-.23-.16.47.47,0,0,1-.08-.26,1.94,1.94,0,0,1,0-.35,2.88,2.88,0,0,0,0-.35.79.79,0,0,0,0-.24,1.2,1.2,0,0,0-.15-.24.69.69,0,0,0-.19-.19.33.33,0,0,0-.22-.08c-.2,0-.48.21-.84.65l-.5.63c-.15.21-.28.41-.41.61s-.25.42-.34.59-.18.34-.25.48a3,3,0,0,0-.35,1.17c0,.37.13.55.37.55a1.92,1.92,0,0,0,.91-.38,6.53,6.53,0,0,0,.91-.73l.56-.59.35-.39A2.94,2.94,0,0,0,170.81,85.33Z"/><path class="cls-1" d="M180.67,84.7a.19.19,0,0,1-.08.15,1,1,0,0,1-.21.12,1.66,1.66,0,0,1-.29.09l-.32.1a4.3,4.3,0,0,0-.78.34,3.15,3.15,0,0,0-.83.66,4.33,4.33,0,0,0-.59.72,5.52,5.52,0,0,0-.42.8c-.11.28-.21.58-.3.89s-.15.65-.21,1l-.11.12a.28.28,0,0,1-.1.09l-.12.06-.17,0a.28.28,0,0,1-.24-.14.87.87,0,0,1-.12-.31,1.49,1.49,0,0,1-.05-.36c0-.12,0-.21,0-.28v-.29c0-.11,0-.24,0-.38s0-.27,0-.42,0-.29,0-.43,0-.26,0-.37,0-.21,0-.29,0-.33,0-.44,0-.22,0-.3,0-.16,0-.22l0-.21c0-.08,0-.17,0-.27s0-.24,0-.4a.5.5,0,0,1,.06-.24.69.69,0,0,1,.13-.2.53.53,0,0,1,.2-.13.41.41,0,0,1,.21,0,.46.46,0,0,1,.23,0,.59.59,0,0,1,.18.13.76.76,0,0,1,.12.19.93.93,0,0,1,0,.22c0,.15,0,.33,0,.53l-.06.63-.06.62c0,.19,0,.36,0,.49.17-.32.37-.64.59-1a5.37,5.37,0,0,1,.74-.9,3.93,3.93,0,0,1,.88-.65,2.08,2.08,0,0,1,1-.26l.24,0a.67.67,0,0,1,.25.08.62.62,0,0,1,.2.15A.33.33,0,0,1,180.67,84.7Z"/><path class="cls-1" d="M188.2,85.2a.83.83,0,0,1-.12.31,11.08,11.08,0,0,1-.69.88c-.25.29-.52.57-.8.84a8.85,8.85,0,0,1-.89.73,7.23,7.23,0,0,1-.92.6,5.61,5.61,0,0,1-.94.38,3.21,3.21,0,0,1-.9.13,1.88,1.88,0,0,1-1.45-.55,2.27,2.27,0,0,1-.52-1.64,5.68,5.68,0,0,1,.28-1.79,4.94,4.94,0,0,1,1-1.67,3.84,3.84,0,0,1,.29-.27,4,4,0,0,1,.34-.23,2.43,2.43,0,0,1,.37-.16,2.79,2.79,0,0,1,.38-.07l.13,0a.58.58,0,0,1,.18,0l.18.07a.4.4,0,0,1,.14.11,1.4,1.4,0,0,1,.26.39,1,1,0,0,1,.11.43,1.66,1.66,0,0,1-.06.54,1.94,1.94,0,0,1-.25.53,3.07,3.07,0,0,1-.45.56c-.19.19-.42.4-.68.62l-.56.47a9,9,0,0,1-.74.54,1.07,1.07,0,0,0,.34.86,1.38,1.38,0,0,0,.94.3,2.71,2.71,0,0,0,.68-.09,5.75,5.75,0,0,0,.66-.23c.22-.1.43-.21.64-.33s.4-.25.58-.38q.5-.36.9-.72c.27-.24.54-.5.8-.76l.32-.32a.82.82,0,0,1,.41-.25C188.18,85.09,188.2,85.13,188.2,85.2ZM183.73,84l0-.18a.47.47,0,0,0-.06-.15l-.09-.1a.28.28,0,0,0-.13,0,.94.94,0,0,0-.62.38,4,4,0,0,0-.58,1,1.48,1.48,0,0,0-.12.29l-.09.33c0,.11-.06.22-.08.33s0,.21-.05.3l.56-.43.48-.39.29-.28a4,4,0,0,0,.26-.32,1.28,1.28,0,0,0,.19-.34A.84.84,0,0,0,183.73,84Z"/><path class="cls-1" d="M195.49,84.57a.9.9,0,0,1-.12.42,2.91,2.91,0,0,1-.25.42,10,10,0,0,1-.77.91q-.4.41-.81.78a3.73,3.73,0,0,1-.86.6,1.62,1.62,0,0,1-.76.22.59.59,0,0,1-.29-.07,1.27,1.27,0,0,1-.27-.18,1.44,1.44,0,0,1-.22-.27,1,1,0,0,1-.15-.32c0-.06,0-.12-.06-.2s0-.15,0-.21a1.38,1.38,0,0,0-.06-.16c0-.05,0-.07-.06-.07s-.05,0-.1.07l-.18.2-.22.27c-.08.1-.15.2-.23.29s-.14.18-.2.26a.92.92,0,0,1-.15.17,3.45,3.45,0,0,1-.43.42,3.56,3.56,0,0,1-.5.39,3.06,3.06,0,0,1-.45.29.82.82,0,0,1-.31.11,1.25,1.25,0,0,1-.43-.07,1.07,1.07,0,0,1-.37-.22,1,1,0,0,1-.25-.34,1,1,0,0,1-.1-.47,3.54,3.54,0,0,1,.17-1,8.13,8.13,0,0,1,.46-1.13,10.37,10.37,0,0,1,.65-1.11,7.2,7.2,0,0,1,.77-.91,3,3,0,0,1,1-.64,2.72,2.72,0,0,1,1-.21.31.31,0,0,1,.17,0l.13.1a.75.75,0,0,1,.09.15l.09.16a.31.31,0,0,0,.1.12l.15.13a1,1,0,0,1,.15.13.17.17,0,0,1,.06.12.91.91,0,0,1,0,.27l-.11.35c0,.13-.07.28-.11.45a3.1,3.1,0,0,0-.05.57,2.9,2.9,0,0,0,0,.48,2.71,2.71,0,0,0,.12.51,1.42,1.42,0,0,0,.2.41.35.35,0,0,0,.29.16.89.89,0,0,0,.4-.11c.13-.08.28-.19.45-.32a11.43,11.43,0,0,0,1.09-1c.35-.37.7-.73,1.06-1.09a.26.26,0,0,1,.17-.09C195.44,84.36,195.49,84.43,195.49,84.57Zm-4.58-.67s0,0,0-.07a.41.41,0,0,0-.06-.11l-.08-.1a.15.15,0,0,0-.11,0h0a1.27,1.27,0,0,0-.46.14,2.29,2.29,0,0,0-.52.37,4.68,4.68,0,0,0-.58.64,8.4,8.4,0,0,0-.64,1l-.22.37c-.08.14-.15.28-.23.45a3.82,3.82,0,0,0-.18.51,2.25,2.25,0,0,0-.07.58.31.31,0,0,0,.13.28.48.48,0,0,0,.27.09.69.69,0,0,0,.38-.16,3.06,3.06,0,0,0,.51-.43c.18-.17.37-.38.56-.6s.36-.47.53-.71a6.71,6.71,0,0,0,.42-.72,2.5,2.5,0,0,0,.24-.63c0-.06,0-.13,0-.21s0-.16.05-.24l0-.23A1.15,1.15,0,0,0,190.91,83.9Z"/><path class="cls-1" d="M206.85,86.32a.75.75,0,0,1,0,.17c0,.07,0,.15-.09.25s-.08.2-.12.3a3.07,3.07,0,0,1-.17.31,4.6,4.6,0,0,1-.36.54,2.27,2.27,0,0,1-.41.41,1.43,1.43,0,0,1-.46.27,1.47,1.47,0,0,1-.56.1,1,1,0,0,1-.49-.13,1.86,1.86,0,0,1-.43-.38,2.69,2.69,0,0,1-.34-.58,3,3,0,0,1-.24-.75c-.05-.21-.09-.42-.12-.62s-.07-.38-.11-.53a1.63,1.63,0,0,0-.13-.36.2.2,0,0,0-.17-.14.45.45,0,0,0-.26.11,1.89,1.89,0,0,0-.31.35,6.54,6.54,0,0,0-.38.62c-.14.25-.29.56-.47.92s-.27.53-.38.74a3.85,3.85,0,0,1-.31.49,1.23,1.23,0,0,1-.28.28.43.43,0,0,1-.26.09.71.71,0,0,1-.2,0,.78.78,0,0,1-.18-.11,1.21,1.21,0,0,1-.16-.16.81.81,0,0,1-.1-.18,3.27,3.27,0,0,1-.11-.52c0-.23-.06-.49-.09-.79s-.06-.51-.08-.7a4.39,4.39,0,0,0-.08-.5,2,2,0,0,0-.1-.34,1.08,1.08,0,0,0-.14-.26c-.14,0-.34.17-.61.49a9.76,9.76,0,0,0-.71,1c-.2.32-.4.64-.59,1l-.18.32-.22.36c-.07.13-.14.24-.21.35l-.18.27a.33.33,0,0,1-.14.11l-.22.08-.22,0-.17,0a.17.17,0,0,1-.16-.1.56.56,0,0,1-.11-.27,2.11,2.11,0,0,1-.06-.41,4.33,4.33,0,0,1,0-.53c0-.18,0-.38,0-.61s0-.47.08-.71.07-.48.11-.72.08-.45.11-.64.07-.47.1-.66a4.21,4.21,0,0,0,0-.46.32.32,0,0,1,.09-.23.26.26,0,0,1,.22-.1c.39,0,.59.27.59.8a3.61,3.61,0,0,1,0,.44c0,.16,0,.33-.07.5s-.06.36-.1.55-.06.37-.1.55-.06.35-.08.52,0,.32,0,.45a3.32,3.32,0,0,0,.4-.48c.16-.21.35-.5.56-.84s.43-.65.62-.91a7,7,0,0,1,.53-.68A1.4,1.4,0,0,1,199,84a.48.48,0,0,1,.24.06.85.85,0,0,1,.19.19,1.46,1.46,0,0,1,.13.28q0,.15.09.33t.12.78c0,.3.07.59.09.88a2.83,2.83,0,0,0,.12.61c.05.13.09.2.11.2a.27.27,0,0,0,.16-.11,1.94,1.94,0,0,0,.21-.3l.22-.39c.08-.15.15-.29.21-.43l.19-.38a2.07,2.07,0,0,1,.13-.26,4.56,4.56,0,0,1,.39-.68,2.66,2.66,0,0,1,.38-.46,1.42,1.42,0,0,1,.39-.25,1.15,1.15,0,0,1,.41-.08.59.59,0,0,1,.34.09.75.75,0,0,1,.24.23,2.55,2.55,0,0,1,.17.33c0,.12.09.25.14.38a3.91,3.91,0,0,1,.09.39c0,.15.05.31.07.48s0,.31.06.45a2.43,2.43,0,0,0,.06.31c.05.15.11.28.16.4a1.27,1.27,0,0,0,.19.31.85.85,0,0,0,.23.2.53.53,0,0,0,.28.07,1.38,1.38,0,0,0,.86-.35,5.39,5.39,0,0,0,.93-1.08.13.13,0,0,1,.07-.06h.06Q206.85,86.17,206.85,86.32Z"/><path class="cls-1" d="M33.49,80.63c.88-.45,1.77-.92,2.67-1.43a24.05,24.05,0,0,1-8.56-6.49,25.79,25.79,0,0,1,5.63-3,27.46,27.46,0,0,0,4.41,8.61c.71-.42,1.42-.85,2.14-1.3A24.66,24.66,0,0,1,35.6,69a34.48,34.48,0,0,1,8.54-1.38V74.2c.85-.58,1.71-1.18,2.57-1.8V67.56a32.79,32.79,0,0,1,5.53.63c.81-.65,1.62-1.3,2.43-2a33.08,33.08,0,0,0-8-1.12v-.51a97.91,97.91,0,0,1-18.57,4.85,23,23,0,0,0-2,1.31c-.22-.31-.42-.65-.63-1-.92.1-1.83.18-2.75.23A27.25,27.25,0,0,0,33.49,80.63Z"/><path class="cls-1" d="M45.43,28C32.8,28,22.22,37.43,19.64,49.93c.74.33,1.52.65,2.32,1a26,26,0,0,1,4.31-10.21,18,18,0,0,0,6.19,3.24A41.17,41.17,0,0,0,31,53.45l2.45.48a39.31,39.31,0,0,1,1.41-9.35,45,45,0,0,0,9.31,1.16v8.87H37.67a152.18,152.18,0,0,0,22.58,1.3s-20.19,3.15-36.31-1.3H21.53c0-.24,0-.48.06-.72-.82-.27-1.63-.57-2.42-.89-.09.93-.14,1.88-.14,2.84a28.74,28.74,0,0,0,2.31,11.33c.87,0,1.77,0,2.68,0a26.25,26.25,0,0,1-2.49-10.05H31a55.83,55.83,0,0,0,1.33,9.27L34.76,66a53.74,53.74,0,0,1-1.33-8.89H44.14v7c.85-.2,1.71-.42,2.57-.64V57.07H56.85c-.05.83-.15,2-.33,3.46l.07,0-.08,0c-.18,1.43-.46,3.08-.85,4.84,1-.86,2-1.74,3.05-2.63a53.47,53.47,0,0,0,.62-5.69h10a26,26,0,0,1-5,14.24,20.45,20.45,0,0,0-6.57-4.07c.37-1.44.65-2.84.87-4.14-1.06,1.19-2.83,3.1-5.15,5.37.42.11.85.21,1.24.33-1.47,4.62-3.93,9.22-8,11.49V74.65c-.83.69-1.69,1.38-2.57,2.07v3.86a12.14,12.14,0,0,1-2.71-1.82c-.68.49-1.38,1-2.09,1.46l.18.18-.3-.1c-.88.59-1.77,1.17-2.68,1.72a25.08,25.08,0,0,0,8.89,1.62c14.55,0,26.39-12.47,26.39-27.8S60,28,45.43,28ZM33.22,41.56a15.46,15.46,0,0,1-5.42-2.83A23.62,23.62,0,0,1,40.26,31.1,24.72,24.72,0,0,0,33.22,41.56Zm10.92,1.71a43.47,43.47,0,0,1-8.54-1c3-8,8.08-10.57,8.38-10.72l-.44-.92.6-.05Zm6.4,37.32c3.2-2.82,5.25-6.9,6.55-10.94a17.74,17.74,0,0,1,5.7,3.59A23.56,23.56,0,0,1,50.54,80.59ZM46.71,30.54h.06l-.06.14Zm0,1.2c1.28.77,5.41,3.72,8,10.67a37.27,37.27,0,0,1-8,.88Zm0,22.87V45.76a38.78,38.78,0,0,0,8.78-1,39.26,39.26,0,0,1,1.4,9.86Zm3.12-23.67A23.48,23.48,0,0,1,62.5,38.12c-.43.64-1.83,2.31-5.38,3.58A24.51,24.51,0,0,0,49.83,30.94Zm9.53,23.67A42.86,42.86,0,0,0,57.87,44a13.81,13.81,0,0,0,6.25-4,26.15,26.15,0,0,1,5.2,14.56Z"/><path class="cls-2" d="M15.44,46.78a31.78,31.78,0,0,1,44.26-20A33.7,33.7,0,0,0,11.11,42.48,14.53,14.53,0,0,0,15.44,46.78Z"/><path class="cls-2" d="M9.82,46.15a33.57,33.57,0,0,0,0,18.95,34.12,34.12,0,0,0,6.28,1.22,31.74,31.74,0,0,1-1.91-10.85A32.26,32.26,0,0,1,14.71,50,24.85,24.85,0,0,1,9.82,46.15Z"/><path class="cls-2" d="M46,87.25a31.7,31.7,0,0,1-13.07-2.82c-1.44.71-2.91,1.36-4.39,1.94A33.65,33.65,0,0,0,61,83.47,31.54,31.54,0,0,1,46,87.25Z"/><path class="cls-2" d="M17.41,69.36a39.54,39.54,0,0,1-6.33-.8,33.79,33.79,0,0,0,14,16q2.36-.7,4.87-1.7A32,32,0,0,1,17.41,69.36Z"/><path class="cls-2" d="M12.93,40c-1.86-6.13,2.65-6.91,4.27-7h-.08l3.5-3.37A9.63,9.63,0,0,0,11.18,31C6.47,34.7,9.5,41.68,9.5,41.68,20.35,61,62.27,55.53,62.27,55.53,38.43,55.2,16,50.12,12.93,40Z"/><path class="cls-2" d="M5.38,58.15c-3.4-5.44.76-7.36,2.3-7.87L9,49.81l.86-3.65a9.16,9.16,0,0,0-8.49,3.75c-3.59,4.77,1.15,10.72,1.15,10.72C18,76.41,57,60.27,57,60.27,34,66.15,11,67.09,5.38,58.15Z"/><path class="cls-2" d="M11.93,81.33c-5.32-3.58-2.31-7-1.11-8.12l1.85-1.37L11.1,68.57a9.16,9.16,0,0,0-6.21,6.89c-1.34,5.81,5.42,9.31,5.42,9.31C30.89,92.86,60,62.19,60,62.19,41.28,77,20.67,87.22,11.93,81.33Z"/></g></g></svg>